<svg version="1.0" xmlns="http://www.w3.org/2000/svg" width="1365.333" height="1365.333" viewBox="0 0 1024 1024"><path d="M460.7 112.6c-.1.2-7 .6-15.2.8-8.3.3-19.5.8-25 1.2-5.5.3-12.2.7-15 .9-10.7.6-40.7 3.2-49 4.1-2.2.3-5.8.7-8 .8-2.2.2-6.9.7-10.5 1.1-6.8.7-8.5.9-16 1.9-2.5.3-6.7.9-9.5 1.2-2.7.3-5.7.7-6.5.9-.8.2-3.7.7-6.5 1-2.7.4-6.1.8-7.5 1-1.4.2-4.3.6-6.5.9-2.2.4-4.9.8-6.1 1.1-1.9.4-4.1.8-13.3 2.1-1.8.2-3.6.6-4 .8-.3.2-2.6.7-5.1 1-4.9.7-8.1 1.2-12 2-6.5 1.4-12.7 2.7-15.1 3.1-10.7 1.9-50.9 11.6-59.9 14.5-1.9.6-4.6 1.3-5.9 1.6-1.3.3-3.2.9-4.3 1.5-1 .5-1.8.7-1.8.4 0-.3-1.6.1-3.5.9s-3.5 1.2-3.5.9c0-.3-.7 0-1.5.7s-1.5 1-1.5.7c0-.3-4.4 1-9.8 2.9-5.3 1.9-13.7 4.9-18.7 6.6-4.9 1.7-9.4 3.4-10 3.8-.5.4-3.7 1.7-7 3-15.6 6-54.2 26.4-55.3 29.2-.2.4-.8.8-1.4.8-1 0-13.3 9.4-16.9 12.9-.9.9-2.5 2.3-3.5 3.2-2.7 2.3-8.5 8.8-11.9 13.4-1.7 2.2-3.2 4.2-3.5 4.5-.8.8-6.8 13.3-7.5 15.7-.3 1.3-.9 3.5-1.3 5-1.1 4.2-.8 181.5.2 183.8.5 1.1 1.1 2.8 1.2 3.8.7 3.5 7.3 15.4 11.5 20.7 4.3 5.5 17.9 19.4 17.9 18.3 0-.3 1.1.6 2.5 1.9 3 3 23.1 16.8 24.4 16.8.5 0 1.6.6 2.3 1.3.7.7 4.6 3 8.7 5 4.1 2.1 8.1 4.3 8.9 5 .8.6 1.8 1.2 2.1 1.1.3 0 3.8 1.4 7.6 3.1 3.9 1.7 10.6 4.6 15 6.5 4.4 1.8 8.9 3.7 10 4.1 3.2 1.4 24.8 9.1 27 9.6 1.1.3 2.7.7 3.5 1.1.8.3 1.7.6 2 .7 2 .6 9.6 2.9 10.3 3.1.4.1.8.2 1 .4.1.1.9.3 1.7.5.8.2 7.1 1.9 14 3.8 14.3 4 19.2 5.2 20.3 4.9.4-.1.7.2.7.7 0 .4.8.8 1.8.8 1.5-.1 6.7 1 28.7 6.3 2.2.5 5.4 1.2 7 1.4 1.7.3 5.3.9 8 1.6 5.4 1.1 6.9 1.4 19 3.5 4.4.8 9.1 1.7 10.5 1.9 1.4.2 5.9 1 10 1.6 9.4 1.4 10.7 1.7 15 2.4 1.9.3 5.3.8 7.5 1 2.2.3 7.8 1 12.5 1.7 4.7.6 10.1 1.3 12 1.5 1.9.1 3.5.3 3.5.4 0 .1 1.4.3 3 .5 3.7.3 14.8 1.5 19.5 2.1 1.9.2 6.4.7 10 .9 3.6.3 8.5.7 11 1 3.9.3 12.3 1 25 2 1.9.2 8.7.6 15 1 6.3.3 14.4.8 18 1 12.3.7 47.5 1.7 64 1.9l16.5.1.1 7.1c0 3.9.4 7.5.7 8.1.4.7.4 1.4-.1 1.7-.9.5-.9 4.7.1 6.3.4.7.4 1.4 0 1.6-1 .6-.9 12.9 0 14.5.4.6.4 1.3-.1 1.6-.9.5-.9 4.7.1 6.3.4.5.4 1.3 0 1.7-.9.9-.9 9.6 0 9.6.5 0 .5.5.2 1.1-1.1 1.6-1.2 6.9-.2 6.9.4 0 .5.5.2 1.1-1.1 1.6-1.2 6.9-.3 7.5.5.3.5 1 .1 1.7-.9 1.5-1 9.8 0 10.4.4.2.4.9 0 1.6-1 1.6-1 5.8-.1 6.3.5.3.5 1 .1 1.7-.9 1.5-1 9.7 0 9.7.5 0 .5.5.2 1.1-1.1 1.6-1.2 6.9-.3 6.9.5 0 .5.8.1 1.7-1 2.2-1 5.4 0 7 .4.6.4 1.4 0 1.6-1 .6-.9 8.9 0 10.4.4.7.4 1.4-.1 1.7-.9.5-.9 4.7.1 6.3.4.7.4 1.4-.1 1.6-.9.6-.8 7.9.1 9.4.4.7.3 1.4-.2 1.8-1.4.8-.3 3.2 1.7 4 1.5.6 24.8 6.5 35 8.9 8.7 2 11.9 2.9 13.2 3.3.8.3 2.3.8 3.3 1 1 .2 7.3 1.7 14 3.4s12.9 3.2 13.7 3.4c2.4.5 14.1 3.4 19.5 4.9 2.8.7 7.3 1.9 10 2.5 8.1 1.9 8.7 2 15 3.6 3.3.9 7 1.8 8.2 2.1 1.2.2 3.4.9 4.8 1.4 1.4.5 2.5.8 2.5.5 0-.2 1.5.1 3.3.6 3.5 1.1 6.1 1.8 9.3 2.4 1.1.3 11.9 3 24 6.1 12 3.1 23.1 5.7 24.7 5.8 1.5 0 2.7.4 2.7.8 0 .5 1.3.8 2.8.8 1.5 0 3.3.5 4 1.2.7.7 1.2.9 1.2.6 0-.4 1.5-.2 3.3.3 1.7.5 4.8 1.2 6.7 1.5 1.9.3 3.9.8 4.3 1.1.5.3 3.6 1.2 7 2s6.9 1.6 7.7 1.8c1.7.5 15.7 3.9 24.5 6.1 3.3.8 6.9 1.7 8 2 1.1.3 3.1.7 4.3 1 1.3.3 4.9 1.2 8 2 3.2.8 6.4 1.7 7.2 1.9.8.2 1.5.4 1.5.5 0 .1.9.3 2 .4 1.1.2 8.8 2 17 4.1 8.3 2.1 15.5 3.8 16 3.9.6.1 1.9.5 3 .9 1.1.3 3.1.9 4.5 1.1 1.4.3 5.2 1.3 8.5 2.1 3.3.9 6.9 1.7 8 1.9 1.1.2 8.3 2 16 4 7.7 2 14.9 3.8 16 4.1 1.1.2 4.7 1.1 7.9 1.9 4.5 1.1 6.6 1.1 8.5.3 1.4-.5 2.8-1.1 3.1-1.1 4.3-.9 36.9-16.7 48-23.4 17.5-10.5 33.8-24.1 44.6-37.3 2-2.5 10.2-16.8 10.2-17.9.1-.3.3-1.2.5-2 .3-.8.9-3.3 1.5-5.4.8-2.7 1.1-29.4 1.1-84-.1-44.1-.3-79.2-.6-78.1-1.1 5.3-4.8 15.5-5.5 15.5-.4 0-.8.6-.8 1.4 0 .8-.8 2.2-1.7 3.2-1 1-1.8 2-1.7 2.3.2.9-2.6 4.9-6 8.9-6.1 7-20.8 20.5-22 20.3-.3-.1-1.5.7-2.5 1.6-7.6 7-29 19.1-50.1 28.6-20 9-20.1 9-25.1 7.7-2.4-.7-5.2-1.4-6.1-1.6-2.7-.6-14.9-3.6-19.8-4.9-8.8-2.2-15.5-3.9-20.5-5.1-3.3-.8-8-2-10.5-2.6-2.5-.7-4.8-1.3-5.2-1.4-.5-.1-.9-.2-1-.3-.2-.2-1.4-.4-2.8-.6-1.4-.2-7.7-1.7-14-3.5-6.3-1.7-12.6-3.3-14-3.5-1.4-.2-4-.9-5.9-1.4-1.8-.6-3.6-.9-4-.9-.3.1-2.2-.3-4.1-1-1.9-.6-4.6-1.3-6-1.6-3.4-.7-5.9-1.3-9.7-2.5-1.8-.5-3.3-.8-3.3-.6 0 .3-1.1 0-2.5-.5s-3.6-1.2-4.8-1.5c-1.2-.2-4-.9-6.2-1.5s-5.1-1.3-6.5-1.5c-1.4-.1-2.5-.4-2.5-.5 0-.1-.7-.3-1.5-.5s-2.4-.6-3.5-.9c-1.1-.2-11.2-2.8-22.5-5.6-19.7-5-21.9-5.5-25.7-6.4-1-.2-8.2-2-16-4-7.8-2-15-3.7-16-3.9-1-.2-3.8-.9-6.3-1.6-4.5-1.3-6.1-1.7-10.2-2.6-3.6-.7-11.2-2.6-12.8-3.2-.8-.4-2.4-.8-3.5-1-1.1-.2-2.9-.6-4-.8-1.1-.2-2-.4-2-.5 0-.1-.7-.3-5-1.4-1.1-.2-4-.9-6.5-1.5-2.5-.7-5.4-1.4-6.5-1.6-6.9-1.5-19.5-4.7-22.3-5.6-1.9-.6-4.4-1.2-5.5-1.4-1.2-.2-6-1.3-10.7-2.5-4.7-1.2-9.3-2.3-10.2-2.6-1-.2-2.8-.7-4-1-1.3-.3-3.9-1-5.8-1.4-1.9-.5-7.3-1.8-12-3-4.7-1.1-9.6-2.3-11-2.6-1.4-.2-3.2-.7-4-1.1-1.5-.6-7-1.9-12.5-2.9-4.8-.9-6.7-2.4-6.2-4.5.3-1 .1-1.9-.3-1.9-.5 0-.5-1.4 0-3 .5-1.7.6-3 .2-3-.4 0-.7-1.1-.7-2.5s.3-2.5.7-2.5c.4 0 .3-1.1-.2-2.4-.5-1.5-.5-2.7.2-3.4.6-.6.6-1.2-.1-1.6-.7-.5-.7-1.5-.1-3.1.6-1.5.6-2.5 0-2.5-.5 0-.5-1.2 0-3 .5-1.7.6-3 .2-3-.4 0-.7-1.1-.7-2.5s.3-2.5.7-2.5c.4 0 .3-1.1-.2-2.4-.5-1.5-.5-2.7.2-3.4.6-.6.6-1.2-.1-1.6-.7-.5-.7-1.5-.1-3.1.6-1.5.6-2.5 0-2.5-.5 0-.5-1.2 0-3 .5-1.7.6-3 .2-3-.4 0-.7-1.1-.7-2.5s.4-2.5.8-2.5.3-.8-.2-1.8c-.6-1.1-.6-2.4 0-3.5.6-.9.6-1.7.1-1.7-.8 0-.8-5.8.1-6.6.3-.3.1-1.9-.3-3.5-.5-1.8-.5-2.9.1-2.9s.6-.6 0-1.8c-.6-1.1-.6-2.4 0-3.4s.6-1.9 0-2.3c-.6-.3-.7-1.5-.2-2.8.5-1.2.5-3.4 0-4.9-.4-1.6-.4-2.8.1-2.8s.5-1.3 0-3c-.5-1.9-.5-3 .1-3s.6-.6 0-1.8c-.6-1.1-.6-2.4 0-3.5.6-.9.6-1.7.2-1.7-.4 0-.8-1.1-.8-2.5s.4-2.5.8-2.5.3-.8-.2-1.8-.6-2.4-.1-3.1c.4-.8.4-2.7 0-4.2-.5-1.8-.5-2.9.1-2.9s.6-.6 0-1.8c-.6-1.1-.6-2.4 0-3.4s.6-1.9 0-2.3c-.6-.3-.7-1.5-.2-2.8.5-1.2.5-3.4 0-4.9-.4-1.6-.4-2.8.1-2.8s.7-.6.4-1.3c-.7-2-1.1-8.7-.5-8.7.3 0 5.3 1.2 11.1 2.6 5.8 1.4 11.2 2.7 12 2.9.8.2 11.4 2.8 23.5 5.8 12.1 3.1 23.1 5.8 24.5 6 1.4.3 3.6 1 5 1.5s2.7 1 3 1c2.1.1 9 1.5 11 2.2 1.4.5 3.6 1.2 5 1.4 2.7.5 21.3 5.1 27 6.7 1.9.5 4.4 1.1 5.5 1.3 1.1.2 2.7.6 3.5.9.8.3 3.8 1.1 6.5 1.7 2.8.7 5.7 1.4 6.5 1.6 7.4 1.8 9.5 2.2 10.2 1.8.4-.3.8-.1.8.4 0 .6 1.5 1.2 3.3 1.5 1.7.3 7 1.5 11.7 2.6 4.7 1.2 9.9 2.4 11.5 2.7 1.7.3 3.8 1 4.8 1.5.9.5 1.7.8 1.7.5 0-.3 1.5 0 3.3.5 1.7.6 4 1.2 5 1.4.9.2 14.6 3.6 30.5 7.5 15.8 4 29.4 7.3 30.2 7.5 3.9 1 31.6 7.7 32.5 7.9.6.2 1.3.4 1.7.5.4.1 2.2.7 4 1.2 1.8.6 4.4 1.2 5.8 1.5 1.4.2 4.1.8 6 1.4 3 .8 13.4 3.4 18 4.5.8.1 4.2 1 7.5 1.8 3.3.9 7.1 1.8 8.5 2.1 1.4.3 7 1.7 12.5 3.1 5.5 1.4 11.4 2.8 13 3.1 1.7.4 3.8 1 4.8 1.5.9.5 1.7.8 1.7.5 0-.2 3 .4 6.6 1.4 3.7 1.1 7.1 1.7 7.5 1.4.5-.3.9-.1.9.4s.6.9 1.3.9c.6 0 3.5.5 6.2 1.2 4 .9 5.7.9 8 0 1.7-.7 3.3-1.3 3.8-1.4.4-.2.9-.4 1.2-.5.3-.1.8-.3 1.3-.4 2.1-.5 31.3-14.6 33.1-15.9.7-.6 1.8-1.2 2.5-1.3 1-.1 22.1-13.1 24.9-15.4 8-6.3 16-13.2 19.4-16.7 5-5.1 13.3-15.6 13.3-16.7 0-.4.8-2 1.9-3.4 1-1.5 2.9-5.9 4.2-9.7l2.4-7V352c0-49.2-.3-90.5-.7-91.8-1.7-5.6-2.2-6.9-4.1-11.2-5.5-11.9-19.3-27.7-33.7-38.3-3.6-2.6-7.3-5.5-8.3-6.3-.9-.8-2.1-1.4-2.6-1.4-.4 0-1.9-.9-3.3-1.9-6.7-5.3-37.4-20.6-55.3-27.6-3.8-1.5-8.3-3.3-10-4-2.5-1.1-27.9-9.7-29.5-10-.3-.1-2.5-.7-5-1.5-2.5-.7-4.8-1.3-5.2-1.2-.5.1-.8-.2-.8-.6 0-.5-.7-.9-1.5-.9s-3.2-.5-5.2-1.1c-6.6-2-17.7-5.1-20.3-5.6-1.4-.3-4.3-1-6.5-1.6-2.2-.6-4.9-1.3-6-1.5-1.6-.4-4.2-1-8.5-2-.3-.1-3.2-.7-6.5-1.5s-6.2-1.4-6.5-1.5c-.3-.1-2.5-.5-5-1-5.2-1-4.4-.9-9.5-1.9-4.6-1-5.7-1.2-10.5-2.1-1.9-.3-5.5-1-8-1.5-3.8-.8-10.4-2-32-5.4-1.9-.4-5.1-.8-7-1.1-1.9-.3-8-1.2-13.5-2-5.5-.9-10.7-1.6-11.5-1.6-1.3 0-7.3-.7-21-2.4-1.9-.2-6.3-.7-9.7-1-3.4-.3-7-.8-8.1-1-1.7-.3-6.5-.7-24.2-2.1-14-1-19-1.4-25-1.9-3.6-.3-11.4-.8-17.5-1.1-6-.3-15.3-.7-20.5-1-10.9-.6-119.7-1.3-120.3-.8zM.3 679.6c.1 44.5.6 82 .9 83.3 2.5 8.5 7.3 19.2 9.1 19.9.4.2.7 1 .7 1.8s.4 1.4.8 1.4 1.5 1.2 2.4 2.7c1.3 2.3 12.5 13.9 18.1 18.8 7.1 6.3 27.7 19.4 41.2 26.3 15.7 8 36.8 17.2 39.4 17.2.6 0 1.1.5 1.1 1 0 .6.3.9.8.9.4-.1 1 0 1.5.1.8.3 1.2.4 5.2 1.5 1.7.4 3.5 1.1 4 1.5 1 .7 31.6 10.8 34.6 11.4.8.2 2.1.6 2.9.9 1.9.8 46.4 12.1 54.5 13.8 3.3.7 6.2 1.3 6.5 1.4 1.7.4 9.7 2 10.5 2 .6.1 2.4.4 4 .8 1.7.4 4.4 1 6 1.2 1.7.3 5.3.9 8 1.5 2.8.6 6.6 1.3 8.5 1.6 1.9.2 4.6.7 6 1 1.4.3 4.1.8 6 1 1.9.3 6 .9 9 1.4 11 1.8 13.6 2.2 16.5 2.5 1.7.1 4.4.5 6 .8 4.2.9 11.3 1.9 16 2.2 2.2.2 5.8.6 8 .9 7 1 11.8 1.5 18 2.2 3.3.3 7.4.8 9 .9 1.7.2 6.2.6 10 1 3.9.3 9 .8 11.5 1 2.5.2 8.6.7 13.7 1 5 .3 11.1.8 13.5 1 2.4.3 9.5.8 15.8 1.1 6.3.3 15.1.7 19.5.9 4.4.2 22.5.7 40.1 1.1l32.1.6.5-3.1c.2-1.7.2-3.1-.1-3.1-.3 0-.6-1.1-.6-2.5s.2-2.5.5-2.5.5-1.6.5-3.5-.2-3.5-.5-3.5-.5-1.1-.5-2.5.3-2.5.7-2.5c.4 0 .3-1.1-.2-2.4-.5-1.5-.5-2.7.2-3.4.6-.6.6-1.2-.1-1.6-.7-.5-.7-1.5-.1-3.1.6-1.5.6-2.5 0-2.5-.5 0-.5-1.2 0-3 .5-1.7.6-3 .2-3-.4 0-.7-1.1-.7-2.5s.4-2.5.8-2.5.3-.8-.2-1.8c-.6-1.1-.6-2.4 0-3.5.6-.9.6-1.7.2-1.7-.4 0-.8-1.1-.8-2.5s.2-2.5.5-2.5.5-1.6.5-3.5-.2-3.5-.5-3.5-.5-1.1-.5-2.5.3-2.5.7-2.5c.4 0 .3-1.1-.2-2.4-.5-1.5-.5-2.7.2-3.4.6-.6.6-1.2-.1-1.6-.7-.5-.7-1.5-.1-3.1.6-1.5.6-2.5 0-2.5-.5 0-.5-1.2 0-3 .5-1.7.6-3 .2-3-.4 0-.7-1.1-.7-2.5s.4-2.5.8-2.5.3-.8-.2-1.8c-.6-1.1-.6-2.4 0-3.5.6-.9.6-1.7.2-1.7-.4 0-.8-1.1-.8-2.5s.2-2.5.5-2.5.5-1.6.5-3.5-.2-3.5-.5-3.5-.5-1.1-.5-2.5.3-2.5.7-2.5c.4 0 .3-1.1-.2-2.4-.5-1.5-.5-2.7.2-3.4.6-.6.6-1.2-.1-1.6-.7-.5-.7-1.5-.1-3.1.6-1.5.6-2.5 0-2.5-.5 0-.5-1.2 0-3 .5-1.7.6-3 .2-3-.4 0-.7-1.1-.7-2.5s.4-2.5.8-2.5.3-.8-.2-1.8c-.6-1.1-.6-2.4 0-3.5.6-.9.6-1.7.2-1.7-1 0-1-4.7 0-5.6.3-.4.2-1.4-.3-2.4-.8-1.5-3.3-1.7-21.2-1.9-19.6-.2-27.3-.4-53.3-1.6-19.2-.8-28.4-1.3-37-2-8-.6-10.9-.8-26-2.1-4.4-.4-9.8-.8-12-.9-2.2-.2-5.8-.6-8-.9-5.1-.7-13.5-1.6-20.5-2.1-3-.3-6.6-.7-8-1-1.4-.3-4.5-.7-7-1-4.1-.4-7.4-.8-15.2-2.1-1.5-.2-4.7-.6-7-.9-2.4-.2-5.4-.7-6.8-1-1.4-.3-4.4-.7-6.7-.9-2.4-.3-4.6-.7-5-.9-.5-.3-3.3-.8-6.4-1.1-5.9-.7-7.2-.9-15.4-2.6-2.7-.6-6.6-1.3-8.5-1.6-6.7-1-7.5-1.2-11.5-2.2-2.2-.6-5.6-1.3-7.5-1.6-1.9-.3-6.6-1.2-10.5-2.1-3.8-.9-7.8-1.8-8.8-2-1-.2-7.5-1.8-14.5-3.5s-13.4-3.3-14.2-3.5c-.8-.2-5.5-1.5-10.5-3-4.9-1.4-9.4-2.8-10-2.9-.5-.1-3-.9-5.5-1.6-2.5-.7-4.9-1.4-5.5-1.6-3-.7-23.3-7.6-25-8.5-1.2-.6-2.7-1.1-3.5-1.3-.8-.2-2.8-.8-4.5-1.5-1.6-.7-7.5-3-12.9-5.2-23.2-9.4-59.5-29.2-64.6-35.4-.7-.8-1.7-1.5-2.1-1.5-2 0-23.9-21.5-23.9-23.4 0-.2-1.5-2.7-3.4-5.5-3.7-5.4-7.6-14.8-8.2-19.5-.2-1.6-.6-3.2-.9-3.5-.3-.3-.4 35.9-.2 80.5z"/></svg>
