<?xml version="1.0" standalone="no"?>
<!DOCTYPE svg PUBLIC "-//W3C//DTD SVG 20010904//EN"
 "http://www.w3.org/TR/2001/REC-SVG-20010904/DTD/svg10.dtd">
<svg version="1.0" xmlns="http://www.w3.org/2000/svg"
 width="192.000000pt" height="192.000000pt" viewBox="0 0 192.000000 192.000000"
 preserveAspectRatio="xMidYMid meet">
<metadata>
Created by potrace 1.11, written by Peter Selinger 2001-2013
</metadata>
<g transform="translate(0.000000,192.000000) scale(0.100000,-0.100000)"
fill="#000000" stroke="none">
<path d="M735 1416 c-173 -25 -297 -67 -350 -120 -24 -24 -25 -30 -25 -149 0
-121 0 -124 27 -150 69 -65 243 -114 446 -124 l127 -6 0 91 c0 51 3 92 8 92 4
0 111 -25 238 -57 259 -64 263 -64 331 4 l33 34 0 114 c0 113 0 115 -30 149
-38 42 -131 81 -260 107 -124 26 -418 34 -545 15z"/>
<path d="M962 769 l3 -92 238 -58 238 -59 38 20 c21 10 50 33 65 50 24 29 26
39 26 122 l0 90 -29 -29 c-15 -16 -46 -37 -68 -46 l-39 -18 -222 55 c-122 31
-228 56 -237 56 -13 0 -15 -14 -13 -91z"/>
<path d="M360 740 c0 -104 8 -119 96 -163 89 -45 306 -87 452 -87 l52 0 0 95
0 95 -63 0 c-129 0 -332 37 -429 79 -24 10 -58 30 -76 45 l-32 28 0 -92z"/>
</g>
</svg>
