<?xml version="1.0" standalone="no"?>
<!DOCTYPE svg PUBLIC "-//W3C//DTD SVG 20010904//EN"
 "http://www.w3.org/TR/2001/REC-SVG-20010904/DTD/svg10.dtd">
<svg version="1.0" xmlns="http://www.w3.org/2000/svg"
 width="300.000000pt" height="300.000000pt" viewBox="0 0 300.000000 300.000000"
 preserveAspectRatio="xMidYMid meet">
<metadata>
Created by potrace 1.11, written by Peter Selinger 2001-2013
</metadata>
<g transform="translate(0.000000,300.000000) scale(0.100000,-0.100000)"
fill="#000000" stroke="none">
<path d="M1298 2375 c-2 -2 -39 -6 -83 -9 -44 -3 -95 -8 -113 -11 -18 -2 -69
-9 -115 -15 -105 -15 -284 -61 -373 -96 -119 -48 -176 -87 -217 -148 -25 -36
-26 -39 -26 -238 0 -229 4 -245 72 -304 23 -19 64 -45 92 -59 76 -35 155 -66
155 -59 0 4 6 2 13 -3 6 -6 35 -16 62 -22 206 -51 378 -74 658 -85 54 -2 69 0
75 13 4 9 7 87 7 174 -2 181 -12 168 111 137 43 -11 89 -22 101 -25 13 -2 27
-6 32 -9 5 -4 22 -8 38 -11 15 -2 55 -11 88 -20 33 -9 71 -18 85 -20 37 -7 65
-13 65 -15 0 -1 7 -3 15 -5 34 -8 61 -15 78 -20 16 -4 179 -43 212 -50 8 -2
15 -4 15 -5 0 -1 13 -4 28 -6 55 -9 196 75 241 143 25 38 25 39 23 254 -2 189
-4 218 -19 233 -10 9 -21 23 -25 30 -13 19 -73 62 -130 90 -56 29 -207 80
-263 91 -55 10 -73 13 -100 20 -44 10 -110 20 -200 30 -25 3 -65 8 -90 11 -47
6 -507 14 -512 9z"/>
<path d="M1505 1145 l0 -176 -153 6 c-84 3 -167 8 -185 10 -17 3 -54 7 -82 10
-27 3 -75 10 -105 15 -30 5 -70 12 -89 15 -19 3 -37 8 -41 10 -3 2 -17 6 -31
8 -183 34 -375 129 -430 214 -18 27 -18 24 -18 -137 1 -199 9 -223 90 -283 37
-27 126 -74 154 -81 6 -2 24 -8 40 -15 54 -23 258 -70 365 -85 132 -19 193
-24 353 -32 118 -5 127 -4 128 13 1 10 2 86 2 170 1 83 5 154 8 158 4 3 33 -1
66 -9 32 -9 68 -17 79 -19 10 -1 25 -6 32 -10 6 -5 12 -6 12 -3 0 3 12 1 28
-5 15 -6 36 -12 47 -14 11 -1 69 -15 129 -30 59 -14 116 -28 125 -31 9 -2 54
-13 101 -25 47 -11 92 -22 100 -24 8 -2 16 -4 18 -5 2 -3 6 -4 54 -13 21 -5
39 -7 40 -7 2 1 15 -3 29 -8 20 -8 35 -5 75 15 78 39 144 84 138 94 -3 5 0 9
6 9 5 0 19 14 29 31 17 28 20 52 20 195 0 100 -3 164 -9 164 -6 0 -10 -5 -10
-10 0 -36 -184 -156 -233 -152 -10 0 -85 17 -165 37 -81 20 -154 38 -162 40
-8 2 -134 33 -279 69 -145 36 -266 66 -270 66 -3 0 -6 -79 -6 -175z"/>
</g>
</svg>
